<svg class="icon" style="width: 1em;height: 1em;vertical-align: middle;fill: currentColor;overflow: hidden;" viewBox="0 0 1024 1024" version="1.1" xmlns="http://www.w3.org/2000/svg"><path d="M358.192 356.368H816a16 16 0 0 1 16 16v416a16 16 0 0 1-16 16H208a16 16 0 0 1-16-16v-416a16 16 0 0 1 9.856-14.784 15.984 15.984 0 0 1 4.56-2.336l401.808-130.464a16 16 0 0 1 20.384 11.072l4.144 15.424a16 16 0 0 1-10.512 19.36l-264.048 85.728z m-118.192 48v352h544v-352H240z m128 48h112a16 16 0 0 1 16 16v16a16 16 0 0 1-16 16h-112a16 16 0 0 1-16-16v-16a16 16 0 0 1 16-16z m-64 96h240a16 16 0 0 1 16 16v16a16 16 0 0 1-16 16H304a16 16 0 0 1-16-16v-16a16 16 0 0 1 16-16z m64 96h112a16 16 0 0 1 16 16v16a16 16 0 0 1-16 16h-112a16 16 0 0 1-16-16v-16a16 16 0 0 1 16-16z m336-208h32a16 16 0 0 1 16 16v32a16 16 0 0 1-16 16h-32a16 16 0 0 1-16-16v-32a16 16 0 0 1 16-16z" fill="#000000" /></svg>