<svg class="icon" style="width: 1em;height: 1em;vertical-align: middle;fill: currentColor;overflow: hidden;" viewBox="0 0 1024 1024" version="1.1" xmlns="http://www.w3.org/2000/svg"><path d="M800 520C800 365.36 674.64 240 520 240S240 365.36 240 520 365.36 800 520 800 800 674.64 800 520z m48 0C848 701.152 701.152 848 520 848S192 701.152 192 520 338.848 192 520 192 848 338.848 848 520z m-198.928 132.768l9.696 10.112a16 16 0 0 1-2.848 24.512c-36.624 26.112-81.408 40.608-128.528 40.608-46.144 0-90.064-13.92-126.288-39.04a116.464 116.464 0 0 1-1.664-1.184 16 16 0 0 1-2.288-23.968l9.6-10.16a16 16 0 0 1 21.04-1.968l2.56 1.824a171.952 171.952 0 0 0 97.04 29.536 171.872 171.872 0 0 0 100.64-32.08 16 16 0 0 1 21.04 1.808z" fill="#000000" /></svg>