<svg class="icon" style="width: 1em;height: 1em;vertical-align: middle;fill: currentColor;overflow: hidden;" viewBox="0 0 1024 1024" version="1.1" xmlns="http://www.w3.org/2000/svg"><path d="M637.216 435.84a42.784 42.784 0 1 0-85.552-0.016 42.784 42.784 0 0 0 85.552 0z m48 0a90.784 90.784 0 1 1-181.552 0 90.784 90.784 0 0 1 181.552 0zM299.792 674.976l-11.76-10.848a16 16 0 0 1-0.896-22.608l128.352-139.072a16 16 0 0 1 23.072-0.448l113.808 113.92 70.896-64.752a16 16 0 0 1 22.176 0.576l88.4 89.552a16 16 0 0 1-0.16 22.64l-11.36 11.232a16 16 0 0 1-22.64-0.16l-66.768-67.632-70.768 64.624a16 16 0 0 1-22.112-0.512l-111.872-112-105.76 114.576a16 16 0 0 1-22.608 0.912zM240 734.608h530.784V304H240v430.608zM818.784 272v494.608a16 16 0 0 1-16 16H208a16 16 0 0 1-16-16V272a16 16 0 0 1 16-16h594.784a16 16 0 0 1 16 16z" fill="#000000" /></svg>