<svg class="icon" style="width: 1em;height: 1em;vertical-align: middle;fill: currentColor;overflow: hidden;" viewBox="0 0 1024 1024" version="1.1" xmlns="http://www.w3.org/2000/svg"><path d="M429.92 674.08h382.944a16 16 0 0 1 16 16v16a16 16 0 0 1-16 16H429.92v32.352a16 16 0 0 1-16 16h-16a16 16 0 0 1-16-16V641.76a16 16 0 0 1 16-16h16a16 16 0 0 1 16 16v32.336z m-57.392-237.44a33.488 33.488 0 1 1 0-67.008 33.488 33.488 0 0 1 0 66.992z m278.24 0a33.488 33.488 0 1 1 0-67.008 33.488 33.488 0 0 1 0 66.992zM355.84 690.08v16a16 16 0 0 1-16 16h-118.256a16 16 0 0 1-16-16v-16a16 16 0 0 1 16-16h118.256a16 16 0 0 1 16 16zM339.136 288a115.136 115.136 0 1 0 0 230.256H684.16a115.136 115.136 0 0 0 0-230.256H339.136z m0-48H684.16c90.08 0 163.136 73.04 163.136 163.136 0 90.08-73.04 163.12-163.136 163.12H339.136C249.04 566.256 176 493.232 176 403.136S249.04 240 339.136 240z" fill="#000000" /></svg>