<svg class="icon" style="width: 1em;height: 1em;vertical-align: middle;fill: currentColor;overflow: hidden;" viewBox="0 0 1024 1024" version="1.1" xmlns="http://www.w3.org/2000/svg"><path d="M256 466.496V768h527.312V466.16L519.68 264.32 256 466.496z m273.392-255.2l295.632 226.352a16 16 0 0 1 6.288 12.704v349.664a16 16 0 0 1-16 16H224a16 16 0 0 1-16-16V450.72a16 16 0 0 1 6.272-12.704L509.92 211.296a16 16 0 0 1 19.472 0z m-17.744 231.84h16a16 16 0 0 1 16 16V672a16 16 0 0 1-16 16h-16a16 16 0 0 1-16-16V459.136a16 16 0 0 1 16-16z m-77.92 44.512h16a16 16 0 0 1 16 16v123.84a16 16 0 0 1-16 16h-16a16 16 0 0 1-16-16v-123.84a16 16 0 0 1 16-16z m155.84 0h16a16 16 0 0 1 16 16v123.84a16 16 0 0 1-16 16h-16a16 16 0 0 1-16-16v-123.84a16 16 0 0 1 16-16z m-233.744 44.528h16a16 16 0 0 1 16 16v34.784a16 16 0 0 1-16 16h-16a16 16 0 0 1-16-16V548.16a16 16 0 0 1 16-16z m311.648 0h16a16 16 0 0 1 16 16v34.784a16 16 0 0 1-16 16h-16a16 16 0 0 1-16-16V548.16a16 16 0 0 1 16-16z" fill="#000000" /></svg>