<svg class="icon" style="width: 1em;height: 1em;vertical-align: middle;fill: currentColor;overflow: hidden;" viewBox="0 0 1024 1024" version="1.1" xmlns="http://www.w3.org/2000/svg"><path d="M536 560a16 16 0 0 1-16 16h-16a16 16 0 0 1-16-16V368a16 16 0 0 1 16-16h16a16 16 0 0 1 16 16v192z m-32 128a16 16 0 0 1-16-16v-32a16 16 0 0 1 16-16h16a16 16 0 0 1 16 16v32a16 16 0 0 1-16 16h-16z m8 112c159.056 0 288-128.944 288-288s-128.944-288-288-288-288 128.944-288 288 128.944 288 288 288z m0 48c-185.568 0-336-150.432-336-336s150.432-336 336-336 336 150.432 336 336-150.432 336-336 336z" fill="#000000" /></svg>