<svg class="icon" style="width: 1em;height: 1em;vertical-align: middle;fill: currentColor;overflow: hidden;" viewBox="0 0 1024 1024" version="1.1" xmlns="http://www.w3.org/2000/svg"><path d="M384 520a104 104 0 1 0-208 0 104 104 0 0 0 208 0z m48 0a152 152 0 1 1-304 0 152 152 0 0 1 304 0z m432 0a104 104 0 1 0-208 0 104 104 0 0 0 208 0z m48 0a152 152 0 1 1-304 0 152 152 0 0 1 304 0z m-428.864-16h73.728c6.16 0 11.136 4.976 11.136 11.136v25.728a11.136 11.136 0 0 1-11.136 11.136h-73.728a11.136 11.136 0 0 1-11.136-11.136v-25.728c0-6.16 4.976-11.136 11.136-11.136z" fill="#000000" /></svg>