<svg class="icon" style="width: 1em;height: 1em;vertical-align: middle;fill: currentColor;overflow: hidden;" viewBox="0 0 1024 1024" version="1.1" xmlns="http://www.w3.org/2000/svg"><path d="M656 618.976V336H208v352h448v-69.024z m48-236.48l129.872-60.928A21.152 21.152 0 0 1 864 340.72v342.56a21.152 21.152 0 0 1-30.128 19.152L704 641.504v83.36a11.136 11.136 0 0 1-11.136 11.136H171.136a11.136 11.136 0 0 1-11.136-11.136V299.136c0-6.16 4.976-11.136 11.136-11.136h521.728c6.16 0 11.136 4.976 11.136 11.136v83.36z m0 53.024v152.96l112 52.544V382.976l-112 52.544z" fill="#000000" /></svg>