<svg class="icon" style="width: 1em;height: 1em;vertical-align: middle;fill: currentColor;overflow: hidden;" viewBox="0 0 1024 1024" version="1.1" xmlns="http://www.w3.org/2000/svg"><path d="M408 432a40 40 0 1 1 0-80 40 40 0 0 1 0 80zM800 544a32 32 0 1 1 0-64 32 32 0 0 1 0 64zM496 256c-141.392 0-256 114.608-256 256s114.608 256 256 256c66.704 0 129.088-25.648 175.936-70.016L485.968 512l185.968-185.984A255.168 255.168 0 0 0 496 256z m233.632 80.224L553.84 512l173.968 173.968a16 16 0 0 1 0.976 21.552l-1.008 1.216A303.328 303.328 0 0 1 496 816c-167.888 0-304-136.112-304-304s136.112-304 304-304c94.384 0 178.72 43.008 234.464 110.496a13.184 13.184 0 0 1-0.832 17.728z" fill="#000000" /></svg>