<svg class="icon" style="width: 1em;height: 1em;vertical-align: middle;fill: currentColor;overflow: hidden;" viewBox="0 0 1024 1024" version="1.1" xmlns="http://www.w3.org/2000/svg"><path d="M277.28 775.648h467.2L664.672 256H357.104l-79.808 519.648z m430.672-554.08l89.632 583.648a16 16 0 0 1-15.808 18.432H240a16 16 0 0 1-15.808-18.432l89.632-583.648a16 16 0 0 1 15.824-13.568h362.48a16 16 0 0 1 15.824 13.568zM502.88 298.784h16a16 16 0 0 1 16 16v62.608a16 16 0 0 1-16 16h-16a16 16 0 0 1-16-16v-62.608a16 16 0 0 1 16-16z m0 166.96h16a16 16 0 0 1 16 16v62.608a16 16 0 0 1-16 16h-16a16 16 0 0 1-16-16v-62.608a16 16 0 0 1 16-16z m0 166.944h16a16 16 0 0 1 16 16v62.624a16 16 0 0 1-16 16h-16a16 16 0 0 1-16-16v-62.624a16 16 0 0 1 16-16z" fill="#000000" /></svg>