<svg class="icon" style="width: 1em;height: 1em;vertical-align: middle;fill: currentColor;overflow: hidden;" viewBox="0 0 1024 1024" version="1.1" xmlns="http://www.w3.org/2000/svg"><path d="M272 752h216a16 16 0 0 1 16 16v16a16 16 0 0 1-16 16H240a16 16 0 0 1-16-16V224a16 16 0 0 1 16-16h496a16 16 0 0 1 16 16v272a16 16 0 0 1-16 16h-16a16 16 0 0 1-16-16V256H272v496z m64-432h96a16 16 0 0 1 16 16v16a16 16 0 0 1-16 16h-96a16 16 0 0 1-16-16v-16a16 16 0 0 1 16-16z m0 96h240a16 16 0 0 1 16 16v16a16 16 0 0 1-16 16H336a16 16 0 0 1-16-16v-16a16 16 0 0 1 16-16z m288 360a120 120 0 1 1 0-240 120 120 0 0 1 0 240z m0-48a72 72 0 1 0 0-144 72 72 0 0 0 0 144z m165.632 81.36l-18.192 18.192a11.136 11.136 0 0 1-15.744 0l-52.144-52.144a11.136 11.136 0 0 1 0-15.744l18.208-18.192a11.136 11.136 0 0 1 15.744 0l52.128 52.144a11.136 11.136 0 0 1 0 15.744z" fill="#000000" /></svg>