<svg class="icon" style="width: 1em;height: 1em;vertical-align: middle;fill: currentColor;overflow: hidden;" viewBox="0 0 1024 1024" version="1.1" xmlns="http://www.w3.org/2000/svg"><path d="M741.216 606.96V224a16 16 0 0 1 16-16h16a16 16 0 0 1 16 16v382.96h32.352a16 16 0 0 1 16 16v16a16 16 0 0 1-16 16h-112.704a16 16 0 0 1-16-16v-16a16 16 0 0 1 16-16h32.352zM496.352 395.472V224a16 16 0 0 1 16-16h16a16 16 0 0 1 16 16v171.472h32.336a16 16 0 0 1 16 16v16a16 16 0 0 1-16 16H464a16 16 0 0 1-16-16v-16a16 16 0 0 1 16-16h32.352z m-256 211.488V224a16 16 0 0 1 16-16h16a16 16 0 0 1 16 16v382.96h32.336a16 16 0 0 1 16 16v16a16 16 0 0 1-16 16H208a16 16 0 0 1-16-16v-16a16 16 0 0 1 16-16h32.352z m16 74.08h16a16 16 0 0 1 16 16v118.272a16 16 0 0 1-16 16h-16a16 16 0 0 1-16-16v-118.272a16 16 0 0 1 16-16z m256-211.472h16a16 16 0 0 1 16 16v329.744a16 16 0 0 1-16 16h-16a16 16 0 0 1-16-16v-329.76a16 16 0 0 1 16-16z m244.864 211.472h16a16 16 0 0 1 16 16v118.272a16 16 0 0 1-16 16h-16a16 16 0 0 1-16-16v-118.272a16 16 0 0 1 16-16z" fill="#000000" /></svg>