<svg class="icon" style="width: 1em;height: 1em;vertical-align: middle;fill: currentColor;overflow: hidden;" viewBox="0 0 1024 1024" version="1.1" xmlns="http://www.w3.org/2000/svg"><path d="M670.4 520H385.6v86.4h284.8v-86.4z m0-32v-38.4H385.6v38.4h284.8z m129.6 32C800 365.36 674.64 240 520 240S240 365.36 240 520 365.36 800 520 800 800 674.64 800 520z m48 0C848 701.152 701.152 848 520 848S192 701.152 192 520 338.848 192 520 192 848 338.848 848 520z m-488-112h336a16 16 0 0 1 16 16v208a16 16 0 0 1-16 16h-336a16 16 0 0 1-16-16v-208a16 16 0 0 1 16-16z m64 144h80a16 16 0 0 1 0 32h-80a16 16 0 0 1 0-32z" fill="#000000" /></svg>