<svg class="icon" style="width: 1em;height: 1em;vertical-align: middle;fill: currentColor;overflow: hidden;" viewBox="0 0 1024 1024" version="1.1" xmlns="http://www.w3.org/2000/svg"><path d="M192 517.392v-16a16 16 0 0 1 16-16h594.784a16 16 0 0 1 16 16v16a16 16 0 0 1-16 16H208a16 16 0 0 1-16-16z m32-101.04h-16a16 16 0 0 1-16-16V208a16 16 0 0 1 16-16h594.784a16 16 0 0 1 16 16v192.352a16 16 0 0 1-16 16h-16a16 16 0 0 1-16-16V240H240v160.352a16 16 0 0 1-16 16z m0 186.08a16 16 0 0 1 16 16v160.352h530.784V618.432a16 16 0 0 1 16-16h16a16 16 0 0 1 16 16v192.352a16 16 0 0 1-16 16H208a16 16 0 0 1-16-16V618.432a16 16 0 0 1 16-16h16z" fill="#000000" /></svg>