<svg class="icon" style="width: 1em;height: 1em;vertical-align: middle;fill: currentColor;overflow: hidden;" viewBox="0 0 1024 1024" version="1.1" xmlns="http://www.w3.org/2000/svg"><path d="M512 800c159.056 0 288-128.944 288-288s-128.944-288-288-288-288 128.944-288 288 128.944 288 288 288z m0 48c-185.568 0-336-150.432-336-336s150.432-336 336-336 336 150.432 336 336-150.432 336-336 336z m-23.712-394.432v117.408l96.608-58.704-96.608-58.704z m0.608 173.2a32 32 0 0 1-48.608-27.36V425.152a32 32 0 0 1 48.608-27.36l143.44 87.152a32 32 0 0 1 0 54.704l-143.44 87.136z" fill="#000000" /></svg>